{"title":"Macklemore &amp; Ryan Lewis Ft. Ray Dalton - Can't Hold Us [Musi","uid":8422125,"size":109767112,"categoryP":"video","categoryS":"music_videos","magnet":"?xt=urn:btih:af347d52fd7a53a18b7eb678c9a635db23485623&amp;dn=Macklemore+%26amp%3B+Ryan+Lewis+Ft.+Ray+Dalton+-+Can%27t+Hold+Us+%5BMusi&amp;tr=udp%3A%2F%2Ftracker.openbittorrent.com%3A80&amp;tr=udp%3A%2F%2Fopen.demonii.com%3A1337&amp;tr=udp%3A%2F%2Ftracker.coppersurfer.tk%3A6969&amp;tr=udp%3A%2F%2Fexodus.desync.com%3A6969","seeders":0,"leechers":0,"uploader":"Sbyky","files":-1,"time":1367230278,"description":"[IMG]http://www.shotpix.com/images/55229175549305784107.png[/IMG]\n\nGeneral\nComplete name                            : Macklemore &amp; Ryan Lewis Ft. Ray Dalton - Can't Hold Us [Music Video] 720p [Sbyky].mp4\nFormat                                   : MPEG-4\nFormat profile                           : Base Media / Version 2\nCodec ID                                 : mp42\nFile size                                : 105 MiB\nDuration                                 : 7mn 3s\nOverall bit rate mode                    : Variable\nOverall bit rate                         : 2 073 Kbps\nEncoded date                             : UTC 2013-04-24 04:25:29\nTagged date                              : UTC 2013-04-24 04:25:29\n\nVideo\nID                                       : 1\nFormat                                   : AVC\nFormat/Info                              : Advanced Video Codec\nFormat profile                           : &lt;a class=&quot;__cf_email__&quot; href=&quot;/cdn-cgi/l/email-protection&quot; data-cfemail=&quot;1159787679515d223f20&quot;&gt;[email&amp;#160;protected]&lt;/a&gt;&lt;script data-cfhash='f9e31' type=&quot;text/javascript&quot;&gt;\n/* &lt;![CDATA[ */!function(){try{var t=&quot;currentScript&quot;in document?document.currentScript:function(){for(var t=document.getElementsByTagName(&quot;script&quot;),e=t.length;e--;)if(t[e].getAttribute(&quot;data-cfhash&quot;))return t[e]}();if(t&amp;&amp;t.previousSibling){var e,r,n,i,c=t.previousSibling,a=c.getAttribute(&quot;data-cfemail&quot;);if(a){for(e=&quot;&quot;,r=parseInt(a.substr(0,2),16),n=2;a.length-n;n+=2)i=parseInt(a.substr(n,2),16)^r,e+=String.fromCharCode(i);e=document.createTextNode(e),c.parentNode.replaceChild(e,c)}t.parentNode.removeChild(t);}}catch(u){}}()/* ]]&gt; */&lt;/script&gt;\nFormat settings, CABAC                   : Yes\nFormat settings, ReFrames                : 1 frame\nCodec ID                                 : avc1\nCodec ID/Info                            : Advanced Video Coding\nDuration                                 : 7mn 3s\nBit rate                                 : 1 879 Kbps\nMaximum bit rate                         : 6 536 Kbps\nWidth                                    : 1 280 pixels\nHeight                                   : 720 pixels\nDisplay aspect ratio                     : 16:9\nFrame rate mode                          : Constant\nFrame rate                               : 23.976 fps\nColor space                              : YUV\nChroma subsampling                       : 4:2:0\nBit depth                                : 8 bits\nScan type                                : Progressive\nBits/(Pixel*Frame)                       : 0.085\nStream size                              : 94.9 MiB (91%)\nTagged date                              : UTC 2013-04-24 04:25:36\n\nAudio\nID                                       : 2\nFormat                                   : AAC\nFormat/Info                              : Advanced Audio Codec\nFormat profile                           : LC\nCodec ID                                 : 40\nDuration                                 : 7mn 3s\nBit rate mode                            : Variable\nBit rate                                 : 192 Kbps\nMaximum bit rate                         : 202 Kbps\nChannel(s)                               : 2 channels\nChannel positions                        : Front: L R\nSampling rate                            : 44.1 KHz\nCompression mode                         : Lossy\nStream size                              : 9.69 MiB (9%)\nTitle                                    : IsoMedia File Produced by Google, 5-11-2011\nEncoded date                             : UTC 2013-04-24 04:25:33\nTagged date                              : UTC 2013-04-24 04:25:36\n\nShared By Sbyky\n[IMG]http://www.shotpix.com/images/76014917432015785852.gif[/IMG]\n[IMG]http://www.shotpix.com/images/54100788659511547411.gif[/IMG]","torrent":{"xt":"urn:btih:af347d52fd7a53a18b7eb678c9a635db23485623","amp;dn":"Macklemore+%26amp%3B+Ryan+Lewis+Ft.+Ray+Dalton+-+Can%27t+Hold+Us+%5BMusi","amp;tr":["udp%3A%2F%2Ftracker.openbittorrent.com%3A80","udp%3A%2F%2Fopen.demonii.com%3A1337","udp%3A%2F%2Ftracker.coppersurfer.tk%3A6969","udp%3A%2F%2Fexodus.desync.com%3A6969"],"infoHash":"af347d52fd7a53a18b7eb678c9a635db23485623","infoHashBuffer":{"type":"Buffer","data":[175,52,125,82,253,122,83,161,139,126,182,120,201,166,53,219,35,72,86,35]},"announce":[],"urlList":[]}}